<?xml version="1.0" encoding="utf-8"?>
<!-- Generator: Adobe Illustrator 24.3.0, SVG Export Plug-In . SVG Version: 6.00 Build 0)  -->
<svg version="1.1" xmlns="http://www.w3.org/2000/svg" xmlns:xlink="http://www.w3.org/1999/xlink" x="0px" y="0px"
	 viewBox="0 0 500 500" style="enable-background:new 0 0 500 500;" xml:space="preserve">
<style type="text/css">
	.st0{fill:#FFFFFF;stroke:#000000;stroke-width:11;stroke-miterlimit:10;}
	.st1{fill:#FFFFFF;stroke:#000000;stroke-width:7;stroke-miterlimit:10;}
	.st2{fill:none;stroke:#000000;stroke-width:5;stroke-miterlimit:10;}
	.st3{stroke:#000000;stroke-width:6;stroke-miterlimit:10;}
	.st4{fill:none;stroke:#000000;stroke-width:5;stroke-linecap:round;stroke-miterlimit:10;}
	.st5{stroke:#000000;stroke-width:5;stroke-miterlimit:10;}
	.st6{fill:#FFFFFF;stroke:#000000;stroke-width:5;stroke-miterlimit:10;}
	.st7{display:none;}
	.st8{display:inline;stroke:#000000;stroke-width:5;stroke-miterlimit:10;}
	.st9{stroke:#000000;stroke-width:19;stroke-miterlimit:10;}
	.st10{fill:#FFFFFF;}
	.st11{fill:none;stroke:#000000;stroke-width:11;stroke-miterlimit:10;}
	.st12{stroke:#000000;stroke-width:0.5;stroke-miterlimit:10;}
	.st13{fill:none;stroke:#FFFFFF;stroke-width:5;stroke-miterlimit:10;}
	.st14{stroke:#000000;stroke-miterlimit:10;}
	.st15{stroke:#000000;stroke-width:5;stroke-linecap:round;stroke-miterlimit:10;}
</style>
<g id="Computer1">
	<path class="st0" d="M387.4,159.73H113.25c-8.21,0-14.87,6.66-14.87,14.87v178.92h303.89V174.6
		C402.27,166.38,395.61,159.73,387.4,159.73z"/>
	<path class="st1" d="M441.75,387.87H59.05c-2.06,0-3.74-1.67-3.74-3.74v-10.75c0-0.52,0.42-0.94,0.94-0.94h388.72
		c0.29,0,0.52,0.23,0.52,0.52v11.17C445.49,386.19,443.82,387.87,441.75,387.87z"/>
	<path class="st1" d="M402.27,353.52H98.38l-41.34,18.68c-0.13,0.06-0.09,0.25,0.05,0.25h387.36c0.24,0,0.3-0.32,0.09-0.42
		L402.27,353.52z"/>
	<path class="st2" d="M362.04,332.74H138.61c-4.84,0-8.76-3.92-8.76-8.76V189.26c0-4.84,3.92-8.76,8.76-8.76h223.43
		c4.84,0,8.76,3.92,8.76,8.76v134.72C370.8,328.82,366.88,332.74,362.04,332.74z"/>
	<line class="st2" x1="129.85" y1="204.38" x2="370.8" y2="204.38"/>
	<path class="st3" d="M326.72,293.4l-3.93,3.98c-0.12,0.12-0.09,0.34,0.07,0.49l7.07,6.98c0.15,0.15,0.18,0.37,0.07,0.49l-1.74,1.76
		c-0.12,0.12-0.34,0.09-0.49-0.06l-7.07-6.98c-0.15-0.15-0.38-0.18-0.49-0.06l-3.93,3.98c-0.16,0.17-0.5,0.04-0.61-0.23l-3.33-8.51
		l-3.33-8.51c-0.1-0.27,0.1-0.48,0.37-0.37l8.55,3.21l8.55,3.21C326.75,292.9,326.89,293.23,326.72,293.4z"/>
	<path class="st2" d="M315.64,291.77H261.7c-2.39,0-4.33-1.94-4.33-4.33v-22.52c0-2.39,1.94-4.33,4.33-4.33h53.94
		c2.39,0,4.33,1.94,4.33,4.33v22.52C319.97,289.83,318.03,291.77,315.64,291.77z"/>
</g>
<g id="Computer2">
</g>
<g id="Tekstproduktion">
</g>
<g id="Foto">
</g>
<g id="Film">
</g>
<g id="BMC">
</g>
<g id="Infografik">
</g>
<g id="Logodesign">
</g>
<g id="Tryksager">
</g>
</svg>
