<?xml version="1.0" encoding="utf-8"?>
<!-- Generator: Adobe Illustrator 24.3.0, SVG Export Plug-In . SVG Version: 6.00 Build 0)  -->
<svg version="1.1" xmlns="http://www.w3.org/2000/svg" xmlns:xlink="http://www.w3.org/1999/xlink" x="0px" y="0px"
	 viewBox="0 0 500 500" style="enable-background:new 0 0 500 500;" xml:space="preserve">
<style type="text/css">
	.st0{fill:#FFFFFF;stroke:#000000;stroke-width:11;stroke-miterlimit:10;}
	.st1{fill:#FFFFFF;stroke:#000000;stroke-width:7;stroke-miterlimit:10;}
	.st2{fill:none;stroke:#000000;stroke-width:5;stroke-miterlimit:10;}
	.st3{stroke:#000000;stroke-width:6;stroke-miterlimit:10;}
	.st4{fill:none;stroke:#000000;stroke-width:5;stroke-linecap:round;stroke-miterlimit:10;}
	.st5{stroke:#000000;stroke-width:5;stroke-miterlimit:10;}
	.st6{fill:#FFFFFF;stroke:#000000;stroke-width:5;stroke-miterlimit:10;}
	.st7{display:none;}
	.st8{display:inline;stroke:#000000;stroke-width:5;stroke-miterlimit:10;}
	.st9{stroke:#000000;stroke-width:19;stroke-miterlimit:10;}
	.st10{fill:#FFFFFF;}
	.st11{fill:none;stroke:#000000;stroke-width:11;stroke-miterlimit:10;}
	.st12{stroke:#000000;stroke-width:0.5;stroke-miterlimit:10;}
	.st13{fill:none;stroke:#FFFFFF;stroke-width:5;stroke-miterlimit:10;}
	.st14{stroke:#000000;stroke-miterlimit:10;}
	.st15{stroke:#000000;stroke-width:5;stroke-linecap:round;stroke-miterlimit:10;}
</style>
<g id="Computer1">
</g>
<g id="Computer2">
</g>
<g id="Tekstproduktion">
</g>
<g id="Foto">
	<path class="st0" d="M385.2,354.17H114.8c-17.34,0-31.39-14.05-31.39-31.39V183.21c0-17.34,14.05-31.39,31.39-31.39h270.4
		c17.34,0,31.39,14.05,31.39,31.39v139.58C416.59,340.12,402.54,354.17,385.2,354.17z"/>
	<circle class="st0" cx="280.88" cy="252.99" r="86.59"/>
	<circle class="st6" cx="280.88" cy="252.99" r="69.09"/>
	<path class="st0" d="M349.07,122.04H210.93c-3.09,0-5.76,1.45-6.42,3.48l-7.34,22.53h165.65l-7.34-22.53
		C354.82,123.49,352.15,122.04,349.07,122.04z"/>
	<path class="st0" d="M159.6,140.52h-32.72c-2.4,0-4.34,1.95-4.34,4.34v3.18h41.41v-3.18C163.94,142.47,162,140.52,159.6,140.52z"/>
	<circle class="st9" cx="142.53" cy="191.35" r="6.12"/>
</g>
<g id="Film">
</g>
<g id="BMC">
</g>
<g id="Infografik">
</g>
<g id="Logodesign">
</g>
<g id="Tryksager">
</g>
</svg>
