<?xml version="1.0" encoding="utf-8"?>
<!-- Generator: Adobe Illustrator 24.3.0, SVG Export Plug-In . SVG Version: 6.00 Build 0)  -->
<svg version="1.1" xmlns="http://www.w3.org/2000/svg" xmlns:xlink="http://www.w3.org/1999/xlink" x="0px" y="0px"
	 viewBox="0 0 500 500" style="enable-background:new 0 0 500 500;" xml:space="preserve">
<style type="text/css">
	.st0{fill:#FFFFFF;stroke:#000000;stroke-width:11;stroke-miterlimit:10;}
	.st1{fill:#FFFFFF;stroke:#000000;stroke-width:7;stroke-miterlimit:10;}
	.st2{fill:none;stroke:#000000;stroke-width:5;stroke-miterlimit:10;}
	.st3{stroke:#000000;stroke-width:6;stroke-miterlimit:10;}
	.st4{fill:none;stroke:#000000;stroke-width:5;stroke-linecap:round;stroke-miterlimit:10;}
	.st5{stroke:#000000;stroke-width:5;stroke-miterlimit:10;}
	.st6{fill:#FFFFFF;stroke:#000000;stroke-width:5;stroke-miterlimit:10;}
	.st7{display:none;}
	.st8{display:inline;stroke:#000000;stroke-width:5;stroke-miterlimit:10;}
	.st9{stroke:#000000;stroke-width:19;stroke-miterlimit:10;}
	.st10{fill:#FFFFFF;}
	.st11{fill:none;stroke:#000000;stroke-width:11;stroke-miterlimit:10;}
	.st12{stroke:#000000;stroke-width:0.5;stroke-miterlimit:10;}
	.st13{fill:none;stroke:#FFFFFF;stroke-width:5;stroke-miterlimit:10;}
	.st14{stroke:#000000;stroke-miterlimit:10;}
	.st15{stroke:#000000;stroke-width:5;stroke-linecap:round;stroke-miterlimit:10;}
</style>
<g id="Computer1">
</g>
<g id="Computer2">
</g>
<g id="Tekstproduktion">
</g>
<g id="Foto">
</g>
<g id="Film">
</g>
<g id="BMC">
</g>
<g id="Infografik">
</g>
<g id="Logodesign">
	<g id="Baggrund_1_">
		
			<ellipse transform="matrix(0.539 -0.8423 0.8423 0.539 -78.0102 405.0999)" class="st10" cx="331.07" cy="273.82" rx="62.96" ry="30.29"/>
		
			<ellipse transform="matrix(0.8028 -0.5963 0.5963 0.8028 -62.9344 241.0659)" class="st10" cx="332.96" cy="215.67" rx="30.29" ry="62.96"/>
		<polygon class="st10" points="139.38,292.5 247.41,398.96 355.44,292.5 139.38,292.5 247.41,398.96 355.44,292.5 		"/>
		<ellipse class="st10" cx="148.5" cy="229.53" rx="30.29" ry="62.96"/>
		<rect x="148.5" y="186.08" class="st10" width="203.01" height="119.94"/>
		
			<rect x="146.01" y="164.68" transform="matrix(0.9777 -0.2099 0.2099 0.9777 -33.9045 41.067)" class="st10" width="60.93" height="31.08"/>
		<polygon class="st10" points="248.67,100.5 225.95,139.86 271.4,139.86 248.67,100.5 225.95,139.86 271.4,139.86 		"/>
		<circle class="st10" cx="250" cy="189.3" r="56.75"/>
	</g>
	<g id="Pensel_1_">
		<path id="Børste" class="st14" d="M355.11,200.53c-8.51,4.73-11.19,3.98-17.31,11.26c-1.24,1.48-2.5,5.77-2.4,6.29
			c0.21,1.08-0.78-1.98-1.1-3.87c-0.63-3.7-4.23-18.87,3.84-27.73c5.34-5.86,16.59-8.69,22.48-3.42
			C366.51,188.32,362.06,196.67,355.11,200.53z"/>
		<path id="Krop_1_" class="st3" d="M424.57,107.73L424.57,107.73c0.37,0.32,0.09,1.21-0.61,1.99l-78.83,87.29
			c-0.7,0.78-1.76,0.93-2.13,0.61l0,0c-0.37-0.32-0.3-1.43,0.41-2.2l79.23-86.86C423.34,107.77,424.2,107.4,424.57,107.73z"/>
	</g>
	<g id="Logo2">
		<path id="Baggrund" class="st11" d="M378.77,229.53c0.07,1.26,0.07,2.48,0.07,3.74c0,64.11-104.71,144.07-127.21,160.51
			c-2.51,1.84-5.93,1.84-8.45,0c-22.49-16.44-127.21-96.4-127.21-160.51c0-24.75,7.01-47.9,19.17-67.57c0.12-0.2,0.36-0.3,0.59-0.25
			c6.17,1.31,12.55,1.97,19.1,1.97c40.34,0,74.66-25.47,87.42-61.04c1.5-1.06,2.92-2.06,4.42-3.12c2.1-0.01,4.21,0.02,6.27,0.13
			c0.12,0.01,0.23,0.09,0.27,0.21c8.4,25.99,28.18,46.95,53.53,57.1"/>
		<line id="Tekst" class="st4" x1="171.93" y1="215.67" x2="322.88" y2="215.67"/>
		<ellipse id="Cirkel" class="st15" cx="247.41" cy="294.38" rx="40.2" ry="39.77"/>
		<g id="Afrunding">
			<ellipse cx="306.75" cy="160.69" rx="5.33" ry="5.27"/>
			<ellipse cx="378.77" cy="229.53" rx="5.24" ry="5.19"/>
		</g>
	</g>
	<ellipse cx="244.73" cy="104.32" rx="7.28" ry="6.54"/>
	<rect x="247.26" y="108.76" class="st10" width="1.93" height="2.46"/>
	
		<rect x="246.76" y="109.03" transform="matrix(0.9388 0.3444 -0.3444 0.9388 53.1385 -78.5952)" class="st10" width="2.05" height="2.46"/>
	
		<rect x="247.65" y="109.04" transform="matrix(0.9329 -0.3602 0.3602 0.9329 -23.0288 96.9891)" class="st10" width="2.05" height="2.46"/>
</g>
<g id="Tryksager">
</g>
</svg>
