<?xml version="1.0" encoding="utf-8"?>
<!-- Generator: Adobe Illustrator 24.3.0, SVG Export Plug-In . SVG Version: 6.00 Build 0)  -->
<svg version="1.1" xmlns="http://www.w3.org/2000/svg" xmlns:xlink="http://www.w3.org/1999/xlink" x="0px" y="0px"
	 viewBox="0 0 500 500" style="enable-background:new 0 0 500 500;" xml:space="preserve">
<style type="text/css">
	.st0{fill:#FFFFFF;stroke:#000000;stroke-width:11;stroke-miterlimit:10;}
	.st1{fill:#FFFFFF;stroke:#000000;stroke-width:7;stroke-miterlimit:10;}
	.st2{fill:none;stroke:#000000;stroke-width:5;stroke-miterlimit:10;}
	.st3{stroke:#000000;stroke-width:6;stroke-miterlimit:10;}
	.st4{fill:none;stroke:#000000;stroke-width:5;stroke-linecap:round;stroke-miterlimit:10;}
	.st5{stroke:#000000;stroke-width:5;stroke-miterlimit:10;}
	.st6{fill:#FFFFFF;stroke:#000000;stroke-width:5;stroke-miterlimit:10;}
	.st7{display:none;}
	.st8{display:inline;stroke:#000000;stroke-width:5;stroke-miterlimit:10;}
	.st9{stroke:#000000;stroke-width:19;stroke-miterlimit:10;}
	.st10{fill:#FFFFFF;}
	.st11{fill:none;stroke:#000000;stroke-width:11;stroke-miterlimit:10;}
	.st12{stroke:#000000;stroke-width:0.5;stroke-miterlimit:10;}
	.st13{fill:none;stroke:#FFFFFF;stroke-width:5;stroke-miterlimit:10;}
	.st14{stroke:#000000;stroke-miterlimit:10;}
	.st15{stroke:#000000;stroke-width:5;stroke-linecap:round;stroke-miterlimit:10;}
</style>
<g id="Computer1">
</g>
<g id="Computer2">
</g>
<g id="Tekstproduktion">
</g>
<g id="Foto">
</g>
<g id="Film">
</g>
<g id="BMC">
</g>
<g id="Infografik">
</g>
<g id="Logodesign">
</g>
<g id="Tryksager">
	<path id="Papir_2_" class="st0" d="M107.52,333.74V166.26c0-8.21,6.66-14.87,14.87-14.87h255.23c8.21,0,14.87,6.66,14.87,14.87
		v167.47c0,8.21-6.66,14.87-14.87,14.87H122.39C114.18,348.6,107.52,341.95,107.52,333.74z"/>
	<path class="st6" d="M190.45,244.72h-44.02c-8.25,0-14.94-6.69-14.94-14.94v-44.02c0-8.25,6.69-14.94,14.94-14.94h44.02
		c8.25,0,14.94,6.69,14.94,14.94v44.02C205.39,238.03,198.71,244.72,190.45,244.72z"/>
	<ellipse cx="168.45" cy="205.77" rx="21.7" ry="26.58"/>
	<polygon points="179.62,242.59 157.38,242.59 154.63,214.11 181.81,214.11 	"/>
	<line class="st4" x1="264.28" y1="177.19" x2="366.53" y2="177.19"/>
	<line class="st4" x1="264.44" y1="201.77" x2="366.7" y2="201.77"/>
	<line class="st4" x1="264.44" y1="226.35" x2="366.7" y2="226.35"/>
	<line class="st4" x1="264.44" y1="250.74" x2="366.7" y2="250.74"/>
	<line class="st4" x1="130.58" y1="275.12" x2="365.78" y2="275.12"/>
	<line class="st4" x1="130.66" y1="298.24" x2="365.7" y2="298.24"/>
	<line class="st4" x1="130.66" y1="321.35" x2="365.7" y2="321.35"/>
</g>
</svg>
