<?xml version="1.0" encoding="utf-8"?>
<!-- Generator: Adobe Illustrator 24.3.0, SVG Export Plug-In . SVG Version: 6.00 Build 0)  -->
<svg version="1.1" xmlns="http://www.w3.org/2000/svg" xmlns:xlink="http://www.w3.org/1999/xlink" x="0px" y="0px"
	 viewBox="0 0 500 500" style="enable-background:new 0 0 500 500;" xml:space="preserve">
<style type="text/css">
	.st0{fill:#FFFFFF;stroke:#000000;stroke-width:11;stroke-miterlimit:10;}
	.st1{fill:#FFFFFF;stroke:#000000;stroke-width:7;stroke-miterlimit:10;}
	.st2{fill:none;stroke:#000000;stroke-width:5;stroke-miterlimit:10;}
	.st3{stroke:#000000;stroke-width:6;stroke-miterlimit:10;}
	.st4{fill:none;stroke:#000000;stroke-width:5;stroke-linecap:round;stroke-miterlimit:10;}
	.st5{stroke:#000000;stroke-width:5;stroke-miterlimit:10;}
	.st6{fill:#FFFFFF;stroke:#000000;stroke-width:5;stroke-miterlimit:10;}
	.st7{display:none;}
	.st8{display:inline;stroke:#000000;stroke-width:5;stroke-miterlimit:10;}
	.st9{stroke:#000000;stroke-width:19;stroke-miterlimit:10;}
	.st10{fill:#FFFFFF;}
	.st11{fill:none;}
	.st12{stroke:#000000;stroke-width:8;stroke-miterlimit:10;}
	.st13{font-family:'MyriadPro-Regular';}
	.st14{font-size:198.1431px;}
	.st15{fill:none;stroke:#000000;stroke-width:11;stroke-miterlimit:10;}
	.st16{stroke:#000000;stroke-width:0.5;stroke-miterlimit:10;}
	.st17{fill:none;stroke:#FFFFFF;stroke-width:5;stroke-miterlimit:10;}
	.st18{stroke:#000000;stroke-miterlimit:10;}
	.st19{stroke:#000000;stroke-width:5;stroke-linecap:round;stroke-miterlimit:10;}
</style>
<g id="Computer1">
</g>
<g id="Computer2">
</g>
<g id="Tekstproduktion">
</g>
<g id="Foto">
</g>
<g id="Film">
</g>
<g id="BMC">
	<path class="st6" d="M126.77,311.89H44.81V122.52c0-8.28,6.72-15,15-15h66.96V311.89z"/>
	<rect x="126.77" y="107.52" class="st6" width="81.96" height="204.37"/>
	<rect x="290.98" y="107.52" class="st6" width="81.96" height="204.37"/>
	<path class="st6" d="M454.9,311.89h-81.96V107.52h66.96c8.28,0,15,6.72,15,15V311.89z"/>
	<line class="st2" x1="126.77" y1="209.7" x2="372.94" y2="209.7"/>
	<rect x="209.02" y="107.52" class="st6" width="81.96" height="204.37"/>
	<path class="st6" d="M250,311.89H44.81v66.8c0,8.28,6.72,15,15,15H250V311.89z"/>
	<path class="st6" d="M250,311.89h205.19v66.8c0,8.28-6.72,15-15,15H250V311.89z"/>
	<rect x="58.07" y="140.48" class="st11" width="396.83" height="146.19"/>
	<text transform="matrix(1 0 0 1 58.0703 281.1635)" class="st12 st13 st14">BMC</text>
	<path class="st15" d="M440.32,393.69H59.68c-8.21,0-14.87-6.66-14.87-14.87V122.39c0-8.21,6.66-14.87,14.87-14.87h380.64
		c8.21,0,14.87,6.66,14.87,14.87v256.44C455.19,387.03,448.53,393.69,440.32,393.69z"/>
</g>
<g id="Infografik">
</g>
<g id="Logodesign">
</g>
<g id="Tryksager">
</g>
</svg>
