<?xml version="1.0" encoding="utf-8"?>
<!-- Generator: Adobe Illustrator 24.3.0, SVG Export Plug-In . SVG Version: 6.00 Build 0)  -->
<svg version="1.1" xmlns="http://www.w3.org/2000/svg" xmlns:xlink="http://www.w3.org/1999/xlink" x="0px" y="0px"
	 viewBox="0 0 500 500" style="enable-background:new 0 0 500 500;" xml:space="preserve">
<style type="text/css">
	.st0{fill:#FFFFFF;stroke:#000000;stroke-width:11;stroke-miterlimit:10;}
	.st1{fill:#FFFFFF;stroke:#000000;stroke-width:7;stroke-miterlimit:10;}
	.st2{fill:none;stroke:#000000;stroke-width:5;stroke-miterlimit:10;}
	.st3{stroke:#000000;stroke-width:6;stroke-miterlimit:10;}
	.st4{fill:none;stroke:#000000;stroke-width:5;stroke-linecap:round;stroke-miterlimit:10;}
	.st5{stroke:#000000;stroke-width:5;stroke-miterlimit:10;}
	.st6{fill:#FFFFFF;stroke:#000000;stroke-width:5;stroke-miterlimit:10;}
	.st7{display:none;}
	.st8{display:inline;stroke:#000000;stroke-width:5;stroke-miterlimit:10;}
	.st9{stroke:#000000;stroke-width:19;stroke-miterlimit:10;}
	.st10{fill:#FFFFFF;}
	.st11{fill:none;stroke:#000000;stroke-width:11;stroke-miterlimit:10;}
	.st12{stroke:#000000;stroke-width:0.5;stroke-miterlimit:10;}
	.st13{fill:none;stroke:#FFFFFF;stroke-width:5;stroke-miterlimit:10;}
	.st14{stroke:#000000;stroke-miterlimit:10;}
	.st15{stroke:#000000;stroke-width:5;stroke-linecap:round;stroke-miterlimit:10;}
</style>
<g id="Computer1">
</g>
<g id="Computer2">
</g>
<g id="Tekstproduktion">
</g>
<g id="Foto">
</g>
<g id="Film">
	<path class="st10" d="M378.79,408.87h-35.65c-11.33,0-20.08-9.95-18.63-21.18l0.84-6.56c1.4-10.87-6.77-20.62-17.71-21.16
		l-73.2-3.59c-0.47-0.02-0.95-0.03-1.42-0.02l-62.35,1.65c-10.95,0.29-19.33,9.85-18.19,20.74l0.98,9.36
		c1.17,11.09-7.53,20.75-18.68,20.75H98.62c-10.38,0-18.79-8.41-18.79-18.79V109.92c0-10.38,8.41-18.79,18.79-18.79h35.52
		c11.38,0,20.15,10.04,18.62,21.31l-0.33,2.45c-1.48,10.93,6.73,20.78,17.75,21.29l67.13,3.09c0.5,0.02,0.99,0.03,1.49,0.01
		l70.43-2.35c11.78-0.39,20.29-11.4,17.7-22.9v0c-2.64-11.74,6.29-22.91,18.33-22.91h33.53c10.38,0,18.79,8.41,18.79,18.79v280.17
		C397.58,400.46,389.17,408.87,378.79,408.87z"/>
	<path id="Film_1_" d="M371.9,91.13v24.46h-24.44V91.13h-20.68c-2.76,0-5,2.24-5,5v24.93c0,6.6-5.4,12-12,12H167.65
		c-6.6,0-12-5.4-12-12V96.13c0-2.76-2.24-5-5-5h-22.6v24.46h-24.44V91.13H84.84c-2.76,0-5,2.24-5,5v307.72
		c0,2.77,2.25,5.02,5.02,5.02h18.75v-24.44h24.44v24.44h22.6c2.76,0,5-2.24,5-5v-24.93c0-6.6,5.4-12,12-12h142.13
		c6.6,0,12,5.4,12,12v24.93c0,2.76,2.24,5,5,5h20.68v-24.44h24.44v24.44h20.68c2.76,0,5-2.24,5-5V96.13c0-2.76-2.24-5-5-5H371.9z
		 M128.05,359.99h-24.44v-24.44h24.44V359.99z M128.05,311.11h-24.44v-24.44h24.44V311.11z M128.05,262.23h-24.44v-24.44h24.44
		V262.23z M128.05,213.35h-24.44v-24.44h24.44V213.35z M128.05,164.47h-24.44v-24.44h24.44V164.47z M321.78,321.06
		c0,6.6-5.4,12-12,12H167.65c-6.6,0-12-5.4-12-12V178.94c0-6.6,5.4-12,12-12h142.13c6.6,0,12,5.4,12,12V321.06z M371.9,359.99
		h-24.44v-24.44h24.44V359.99z M371.9,311.11h-24.44v-24.44h24.44V311.11z M371.9,261.59h-24.44v-24.44h24.44V261.59z M371.9,213.35
		h-24.44v-24.44h24.44V213.35z M371.9,165.11h-24.44v-24.44h24.44V165.11z"/>
	<path id="Playknap" d="M273.51,246.73c3.17,1.88,3.11,6.49-0.1,8.29l-32.36,18.16l-32.36,18.16c-3.21,1.8-7.18-0.55-7.13-4.23
		l0.45-37.11l0.45-37.11c0.05-3.69,4.06-5.94,7.23-4.06l31.91,18.95L273.51,246.73z"/>
</g>
<g id="BMC">
</g>
<g id="Infografik">
</g>
<g id="Logodesign">
</g>
<g id="Tryksager">
</g>
</svg>
