<?xml version="1.0" encoding="utf-8"?>
<!-- Generator: Adobe Illustrator 24.3.0, SVG Export Plug-In . SVG Version: 6.00 Build 0)  -->
<svg version="1.1" xmlns="http://www.w3.org/2000/svg" xmlns:xlink="http://www.w3.org/1999/xlink" x="0px" y="0px"
	 viewBox="0 0 500 500" style="enable-background:new 0 0 500 500;" xml:space="preserve">
<style type="text/css">
	.st0{fill:#FFFFFF;stroke:#000000;stroke-width:11;stroke-miterlimit:10;}
	.st1{fill:#FFFFFF;stroke:#000000;stroke-width:7;stroke-miterlimit:10;}
	.st2{fill:none;stroke:#000000;stroke-width:5;stroke-miterlimit:10;}
	.st3{stroke:#000000;stroke-width:6;stroke-miterlimit:10;}
	.st4{fill:none;stroke:#000000;stroke-width:5;stroke-linecap:round;stroke-miterlimit:10;}
	.st5{stroke:#000000;stroke-width:5;stroke-miterlimit:10;}
	.st6{fill:#FFFFFF;stroke:#000000;stroke-width:5;stroke-miterlimit:10;}
	.st7{display:none;}
	.st8{display:inline;stroke:#000000;stroke-width:5;stroke-miterlimit:10;}
	.st9{stroke:#000000;stroke-width:19;stroke-miterlimit:10;}
	.st10{fill:#FFFFFF;}
	.st11{fill:none;stroke:#000000;stroke-width:11;stroke-miterlimit:10;}
	.st12{stroke:#000000;stroke-width:0.5;stroke-miterlimit:10;}
	.st13{fill:none;stroke:#FFFFFF;stroke-width:5;stroke-miterlimit:10;}
	.st14{stroke:#000000;stroke-miterlimit:10;}
	.st15{stroke:#000000;stroke-width:5;stroke-linecap:round;stroke-miterlimit:10;}
</style>
<g id="Computer1">
</g>
<g id="Computer2">
</g>
<g id="Tekstproduktion">
	<path id="Papir" class="st0" d="M345.78,402.6H155.97c-8.21,0-14.87-6.66-14.87-14.87V132.51c0-8.21,6.66-14.87,14.87-14.87h189.81
		c8.21,0,14.87,6.66,14.87,14.87v255.23C360.65,395.94,353.99,402.6,345.78,402.6z"/>
	<g id="Tekstlinjer_3_">
		<line class="st4" x1="175.52" y1="255.35" x2="326.62" y2="255.35"/>
		<line class="st4" x1="175.52" y1="160.41" x2="326.62" y2="160.41"/>
		<line class="st4" x1="175.13" y1="192.37" x2="326.23" y2="192.37"/>
		<line class="st4" x1="175.52" y1="222.65" x2="326.62" y2="222.65"/>
		<line class="st4" x1="175.52" y1="288.09" x2="291.27" y2="288.09"/>
	</g>
	<g id="Blyant">
		<path class="st2" d="M296.45,285.47c-2.92,1.37-5.87-1.76-4.4-4.57c0.01-0.04,0.03-0.07,0.05-0.11l13.99-24.8
			c0.15-0.28,0.51-0.45,0.64-0.31"/>
		<path class="st2" d="M296.45,285.47l25.79-12.05c0.23-0.11,0.39-0.34,0.39-0.5c0-0.05-0.01-0.09-0.04-0.12"/>
		<path class="st2" d="M292.05,280.9l-2.8,4.96c-0.72,1.26,0.61,2.69,1.93,2.08l5.27-2.47l25.79-12.05c0.23-0.11,0.39-0.34,0.39-0.5
			c0-0.05-0.01-0.09-0.04-0.12l-2.83-4.38c-2.61-4.04-5.93-7.56-9.81-10.39l-3.22-2.35c-0.13-0.14-0.49,0.03-0.64,0.31L292.05,280.9
			"/>
		<path id="Bly" class="st5" d="M295.4,285.97l3.56-1.97c2.27-1.26,3.18-4.06,1.8-5.55l-1.32-1.42c-1.38-1.49-4.24-0.79-5.67,1.37
			l-2.24,3.4C289.48,284.9,292.14,287.77,295.4,285.97l3.56-1.97c2.27-1.26,3.18-4.06,1.8-5.55l-1.32-1.42
			c-1.38-1.49-4.24-0.79-5.67,1.37l-2.24,3.4C289.48,284.9,292.14,287.77,295.4,285.97z"/>
		<path id="Krop" class="st6" d="M428.43,165.65l-6.82-7.36c-2.59-2.79-6.95-2.96-9.75-0.37l-104.85,97.17
			c-0.25,0.23-0.26,0.62-0.03,0.87l2.75,1.6c4.48,3.24,8.73,7.01,11.19,12.05l1.42,2.92c0.23,0.25,0.62,0.26,0.87,0.03l104.85-97.17
			C430.86,172.81,431.02,168.44,428.43,165.65z"/>
		<g id="Linjer" class="st7">
			<line class="st8" x1="425.02" y1="161.97" x2="314.66" y2="264.24"/>
			<line class="st8" x1="428.99" y1="166.25" x2="318.63" y2="268.53"/>
			<line class="st8" x1="421.05" y1="157.69" x2="310.69" y2="259.96"/>
		</g>
	</g>
</g>
<g id="Foto">
</g>
<g id="Film">
</g>
<g id="BMC">
</g>
<g id="Infografik">
</g>
<g id="Logodesign">
</g>
<g id="Tryksager">
</g>
</svg>
